<?xml version="1.0" encoding="utf-8"?>
<svg viewBox="0 0 500 500" xmlns="http://www.w3.org/2000/svg">
  <path style="stroke: rgb(0, 0, 0); stroke-width: 0px; fill: rgb(255, 255, 255);" d="M 61.731 102.614 L 232.914 0.743 L 424.286 112.62 L 287.593 176.652 L 393.793 230.861 L 400.101 404.405 L 236.07 497.362 L 57.526 382.757 L 183.494 325.456 L 73.298 276.339"/>
  <path d="M 356.813 378.317 L 434.114 519.369 L 279.511 519.369 L 356.813 378.317 Z" style="fill: rgb(5, 236, 64); stroke-width: 0px;" transform="matrix(0.915063, 0.403312, -0.511038, 0.867583, 103.714478, -447.528412)"/>
  <path d="M 526.772 373.645 L 604.073 514.697 L 449.47 514.697 L 526.772 373.645 Z" style="fill: rgb(0, 181, 46); stroke-width: 0px;" transform="matrix(0.915063, -0.403312, 0.511038, 0.867583, -438.774017, -88.026741)"/>
  <path d="M 356.813 378.317 L 434.114 519.369 L 279.511 519.369 L 356.813 378.317 Z" style="fill: rgb(5, 236, 64); stroke-width: 0px;" transform="matrix(0.915063, 0.403312, -0.511038, 0.867583, 102.662971, -297.451111)"/>
  <path d="M 503.099 389.683 L 576.926 536.791 L 429.272 536.791 L 503.099 389.683 Z" style="fill: rgb(252, 255, 25); stroke-width: 0px;" transform="matrix(0.080577, 0.996748, -0.99838, 0.06039, 589.143616, -346.329102)"/>
  <path d="M 356.813 378.317 L 434.114 519.369 L 279.511 519.369 L 356.813 378.317 Z" style="fill: rgb(0, 181, 46); stroke-width: 0px;" transform="matrix(-0.915063, -0.403312, 0.511038, -0.867583, 367.424988, 952.907959)"/>
  <path d="M 356.813 378.317 L 434.114 519.369 L 279.511 519.369 L 356.813 378.317 Z" style="fill: rgb(0, 181, 46); stroke-width: 0px;" transform="matrix(-0.915063, -0.403312, 0.511038, -0.867583, 365.32196, 806.468811)"/>
  <path d="M 502.358 384.367 L 576.076 529.467 L 428.64 529.467 L 502.358 384.367 Z" style="stroke-width: 0px; fill: rgb(0, 77, 63);" transform="matrix(-0.040338, -0.999186, 0.999596, -0.030195, -133.574463, 838.016418)"/>
  <path d="M 526.772 373.645 L 604.073 514.697 L 449.47 514.697 L 526.772 373.645 Z" style="fill: rgb(5, 236, 64); stroke-width: 0px;" transform="matrix(-0.915063, 0.403312, -0.511038, -0.867583, 909.180298, 589.768005)"/>
  <rect x="74.665" y="266.766" width="425.335" height="233.234" style="fill: rgb(255, 255, 255);"/>
  <path d="M 161.747 370.766 L 207.647 323.816 L 221.747 323.816 L 175.847 370.766 L 221.747 417.716 L 207.647 417.716 Z M 238.538 412.916 L 283.088 323.816 L 294.938 323.816 L 294.938 328.616 L 250.388 417.716 L 238.538 417.716 Z M 357.638 370.766 L 311.738 323.816 L 325.838 323.816 L 371.738 370.766 L 325.838 417.716 L 311.738 417.716 Z" transform="matrix(1.735672, 0, 0, 1.795072, -167.722198, -279.983734)" style="fill: rgb(51, 51, 51); white-space: pre;"/>
</svg>